<svg width="156" height="48" viewBox="0 0 156 48" fill="none" xmlns="http://www.w3.org/2000/svg">
<path d="M150.62 0H4.40514C1.97225 0 0 1.97225 0 4.40514V43.5948C0 46.0277 1.97225 47.9999 4.40514 47.9999H150.62C153.053 47.9999 155.026 46.0277 155.026 43.5948V4.40514C155.026 1.97225 153.053 0 150.62 0Z" fill="black"/>
<path d="M34.1826 24.2673C34.1463 20.5159 37.2543 18.6895 37.3944 18.6065C36.7784 17.7263 35.9658 17.0016 35.021 16.4901C34.0763 15.9785 33.0253 15.6941 31.9515 15.6593C29.6633 15.4207 27.4426 17.0343 26.2752 17.0343C25.1077 17.0343 23.2865 15.6853 21.3564 15.7216C20.1049 15.7632 18.8854 16.1276 17.8163 16.7795C16.7472 17.4313 15.8647 18.3484 15.2545 19.4418C12.6187 24.013 14.5852 30.7219 17.1121 34.411C18.3781 36.2218 19.8517 38.2402 21.7818 38.1676C23.712 38.0949 24.3761 36.9638 26.6591 36.9638C28.9421 36.9638 29.5855 38.1676 31.5572 38.1209C33.5289 38.0742 34.8675 36.3049 36.0868 34.4888C36.9986 33.202 37.6992 31.778 38.1623 30.2705C36.9836 29.7715 35.9777 28.9368 35.2701 27.8702C34.5624 26.8036 34.1842 25.5524 34.1826 24.2724" fill="white"/>
<path d="M30.4572 13.231C31.5607 11.9056 32.1059 10.2032 31.9775 8.4834C30.2865 8.6593 28.7243 9.46727 27.6035 10.7456C26.6644 11.8456 25.8238 13.6409 26.0469 15.3324C27.7021 15.4517 29.3988 14.497 30.4624 13.2569" fill="white"/>
<path d="M61.5162 37.8664H58.8856L57.438 33.3315H52.4206L51.0456 37.8664H48.4824L53.4531 22.425H56.5248L61.5162 37.8664ZM57.0073 31.4273L55.679 27.3957C55.5389 26.9858 55.2795 26.0104 54.9007 24.4849H54.854C54.6984 25.1456 54.4528 26.1159 54.1173 27.3957L52.8357 31.4273H57.0073Z" fill="white"/>
<path d="M74.3062 32.1644C74.3062 34.06 73.7873 35.556 72.7496 36.6525C72.3186 37.1272 71.7908 37.5039 71.2019 37.7572C70.6129 38.0105 69.9765 38.1345 69.3355 38.1209C67.8654 38.1209 66.8104 37.5934 66.1704 36.5384H66.1289V42.4015H63.6539V30.3951C63.6539 29.2086 63.6228 27.9876 63.5605 26.7319H65.7346L65.8747 28.496H65.9214C66.2968 27.9225 66.8009 27.4445 67.3935 27.1C67.9862 26.7555 68.651 26.5541 69.3352 26.5118C70.0194 26.4695 70.704 26.5874 71.3345 26.8562C71.9651 27.125 72.5243 27.5373 72.9675 28.0602C73.8869 29.2248 74.3548 30.6822 74.2854 32.1644H74.3062ZM71.7638 32.2526C71.8019 31.3044 71.5464 30.3676 71.0322 29.5701C70.7924 29.2227 70.4702 28.9404 70.0943 28.7484C69.7185 28.5564 69.3008 28.4607 68.8789 28.4701C68.2696 28.4706 67.68 28.6855 67.2133 29.0772C66.7187 29.485 66.3767 30.0483 66.2431 30.6753C66.1748 30.9205 66.1365 31.1731 66.1289 31.4276V33.2851C66.1063 34.0379 66.3717 34.7708 66.8709 35.3346C67.1116 35.6083 67.4101 35.8252 67.7447 35.9697C68.0794 36.1141 68.4419 36.1825 68.8062 36.17C69.2297 36.1881 69.6509 36.0992 70.0308 35.9115C70.4108 35.7237 70.7373 35.4433 70.9803 35.096C71.5383 34.2561 71.8129 33.2597 71.7638 32.2526Z" fill="white"/>
<path d="M87.1118 32.1642C87.1118 34.058 86.5929 35.5523 85.5552 36.6523C85.1242 37.127 84.5964 37.5037 84.0075 37.757C83.4185 38.0103 82.7821 38.1343 82.1411 38.1207C80.6779 38.1207 79.6246 37.5932 78.9812 36.5382H78.9345V42.4013H76.4595V30.3948C76.4595 29.2084 76.4301 27.9873 76.3713 26.7317H78.5454L78.6855 28.4958H78.7322C79.107 27.9223 79.6106 27.4443 80.2028 27.0998C80.795 26.7553 81.4595 26.5539 82.1433 26.5116C82.8271 26.4693 83.5114 26.5872 84.1415 26.856C84.7717 27.1248 85.3304 27.5371 85.7731 28.06C86.6946 29.2235 87.1628 30.6817 87.091 32.1642H87.1118ZM84.5745 32.2524C84.6109 31.3037 84.3536 30.3669 83.8378 29.5698C83.599 29.2215 83.277 28.9383 82.9009 28.7462C82.5248 28.5541 82.1067 28.4591 81.6845 28.4699C81.077 28.4716 80.4894 28.6864 80.0241 29.0769C79.5282 29.4845 79.1845 30.0476 79.0487 30.675C78.9804 30.9203 78.9421 31.1729 78.9345 31.4274V33.2849C78.914 34.0373 79.1791 34.7695 79.6765 35.3344C79.9178 35.6088 80.2171 35.8261 80.5527 35.9706C80.8883 36.115 81.2519 36.1831 81.617 36.1698C82.0403 36.1869 82.4612 36.0976 82.841 35.9099C83.2208 35.7223 83.5475 35.4423 83.7911 35.0957C84.3468 34.2548 84.6211 33.2592 84.5745 32.2524Z" fill="white"/>
<path d="M101.432 33.5394C101.452 34.1415 101.34 34.7407 101.103 35.2947C100.867 35.8488 100.511 36.3441 100.063 36.746C99.056 37.6488 97.6551 38.095 95.8546 38.095C94.4553 38.1621 93.0659 37.8291 91.849 37.1351L92.4249 35.0597C93.5047 35.7114 94.744 36.0508 96.0051 36.0403C96.7805 36.0881 97.5486 35.8663 98.1791 35.4125C98.4309 35.2112 98.6323 34.954 98.7674 34.6613C98.9025 34.3685 98.9676 34.0484 98.9574 33.7262C98.9645 33.4328 98.9115 33.1411 98.8018 32.869C98.692 32.5969 98.5278 32.35 98.3192 32.1437C97.6989 31.601 96.9727 31.1929 96.1867 30.9451C93.4782 29.9385 92.1257 28.4632 92.1292 26.5192C92.1152 25.9265 92.2358 25.3384 92.4821 24.7991C92.7283 24.2599 93.0938 23.7835 93.5509 23.406C94.6209 22.552 95.966 22.1183 97.3334 22.1867C98.5432 22.1453 99.7451 22.3982 100.836 22.9235L100.218 24.9418C99.3092 24.4565 98.2911 24.2118 97.2607 24.231C96.5274 24.1865 95.8033 24.4137 95.2268 24.8692C95.0289 25.0444 94.8713 25.2602 94.7647 25.5021C94.6581 25.7439 94.6051 26.0059 94.6093 26.2701C94.6032 26.5591 94.6637 26.8456 94.7861 27.1074C94.9084 27.3692 95.0894 27.5994 95.315 27.78C95.9957 28.2948 96.7541 28.6977 97.5617 28.9734C98.6706 29.3651 99.6739 30.008 100.493 30.8517C101.13 31.5973 101.465 32.5542 101.432 33.5342" fill="white"/>
<path d="M109.641 28.5892H106.911V33.9958C106.911 35.3794 107.394 36.0712 108.359 36.0712C108.727 36.0797 109.095 36.0414 109.454 35.9571L109.521 37.8354C108.903 38.041 108.253 38.1341 107.602 38.1104C107.178 38.135 106.753 38.068 106.358 37.914C105.962 37.76 105.604 37.5226 105.308 37.2179C104.758 36.623 104.483 35.6233 104.483 34.2189V28.5892H102.854V26.7317H104.452V24.6926L106.88 23.9558V26.7317H109.641V28.5892Z" fill="white"/>
<path d="M121.917 32.2057C121.978 33.7459 121.455 35.2523 120.454 36.4241C119.938 36.9864 119.306 37.4296 118.602 37.7226C117.898 38.0156 117.138 38.1515 116.376 38.1208C115.645 38.1532 114.915 38.024 114.24 37.7423C113.565 37.4607 112.96 37.0337 112.469 36.4915C111.479 35.36 110.958 33.8945 111.011 32.3925C110.947 30.8393 111.484 29.3213 112.51 28.1534C113.024 27.6006 113.652 27.1665 114.351 26.8815C115.05 26.5965 115.803 26.4675 116.557 26.5034C117.292 26.4729 118.025 26.6023 118.705 26.8827C119.385 27.1631 119.996 27.5878 120.495 28.1275C121.471 29.2565 121.979 30.7149 121.917 32.2057ZM119.323 32.2888C119.351 31.3638 119.121 30.4493 118.659 29.6477C118.452 29.2385 118.134 28.8961 117.741 28.6602C117.348 28.4242 116.896 28.3043 116.438 28.3143C115.973 28.3003 115.513 28.4181 115.112 28.654C114.711 28.89 114.384 29.2344 114.17 29.6477C113.71 30.4719 113.489 31.4081 113.532 32.351C113.504 33.2759 113.734 34.1903 114.196 34.992C114.411 35.3982 114.733 35.7381 115.126 35.9752C115.52 36.2123 115.971 36.3375 116.43 36.3375C116.889 36.3375 117.34 36.2123 117.734 35.9752C118.127 35.7381 118.449 35.3982 118.664 34.992C119.135 34.1839 119.372 33.2604 119.349 32.3251" fill="white"/>
<path d="M129.959 28.9058C129.702 28.8614 129.442 28.8388 129.181 28.8383C128.789 28.8216 128.399 28.903 128.047 29.0752C127.694 29.2473 127.39 29.5048 127.163 29.8242C126.731 30.4746 126.515 31.2442 126.545 32.0241V37.8665H124.07L124.096 30.2392C124.096 28.9525 124.06 27.785 124.003 26.7317H126.156L126.249 28.8643H126.317C126.551 28.1699 126.979 27.5575 127.552 27.1001C128.068 26.7125 128.696 26.5031 129.342 26.5034C129.548 26.5027 129.755 26.5166 129.959 26.545V28.9058Z" fill="white"/>
<path d="M141.027 31.77C141.031 32.1472 141.002 32.524 140.938 32.8959H133.508C133.492 33.3692 133.579 33.8404 133.765 34.2762C133.951 34.712 134.23 35.1016 134.582 35.4176C135.275 35.9586 136.138 36.2346 137.016 36.1959C138.039 36.212 139.056 36.036 140.015 35.677L140.404 37.3944C139.22 37.8804 137.948 38.1154 136.668 38.0845C135.922 38.1257 135.174 38.0114 134.474 37.7488C133.774 37.4862 133.136 37.0811 132.6 36.5591C132.095 36.0096 131.704 35.3652 131.45 34.6633C131.196 33.9613 131.085 33.2159 131.122 32.4704C131.065 30.9528 131.555 29.4653 132.502 28.278C132.964 27.6946 133.557 27.2285 134.233 26.9175C134.91 26.6064 135.65 26.4593 136.393 26.4879C137.101 26.4514 137.807 26.5967 138.442 26.9101C139.078 27.2234 139.623 27.6944 140.025 28.278C140.706 29.316 141.049 30.5396 141.006 31.7803L141.027 31.77ZM138.645 31.1421C138.68 30.4753 138.517 29.8131 138.178 29.2379C137.973 28.9027 137.681 28.6293 137.333 28.4467C136.985 28.264 136.594 28.1788 136.201 28.2002C135.816 28.1955 135.435 28.2852 135.092 28.4616C134.749 28.638 134.455 28.8956 134.235 29.212C133.81 29.7696 133.556 30.4382 133.503 31.137L138.645 31.1421Z" fill="white"/>
<path d="M50.0546 9.52124H51.9017C54.029 9.52124 55.2847 10.6679 55.2847 12.9613C55.2847 15.2547 54.0291 16.4584 51.9692 16.4584H50.0546V9.52124ZM51.8239 15.4622C53.2196 15.4622 54.0239 14.6684 54.0239 12.9613C54.0239 11.2542 53.2196 10.5175 51.8239 10.5175H51.305V15.4622H51.8239Z" fill="white"/>
<path d="M56.4366 9.62492C56.4219 9.47159 56.454 9.31742 56.5286 9.18268C56.6033 9.04795 56.717 8.93897 56.8547 8.87008C56.9925 8.80119 57.1479 8.77563 57.3005 8.79676C57.453 8.81788 57.5956 8.88471 57.7095 8.98843C57.8233 9.09216 57.9031 9.22793 57.9384 9.37787C57.9736 9.52782 57.9626 9.68491 57.9068 9.82848C57.851 9.97205 57.7531 10.0954 57.6259 10.1822C57.4987 10.2691 57.3481 10.3154 57.1941 10.315C57.0983 10.3228 57.0019 10.3109 56.9109 10.2799C56.82 10.2488 56.7363 10.1994 56.6653 10.1347C56.5942 10.07 56.5372 9.99129 56.4979 9.90359C56.4586 9.81589 56.4377 9.72103 56.4366 9.62492ZM56.5767 11.2282H57.8012V16.4168H56.5767V11.2282Z" fill="white"/>
<path d="M58.8337 15.841L59.4045 15.0627C59.8076 15.4241 60.3264 15.6302 60.8677 15.6438C61.4384 15.6438 61.703 15.3792 61.703 15.0212C61.703 14.6632 61.1375 14.3882 60.5823 14.1754C59.9026 13.9212 59.1191 13.5268 59.1191 12.6603C59.1191 11.7938 59.8507 11.1038 61.0182 11.1038C61.6482 11.1084 62.2578 11.3281 62.746 11.7264L62.1856 12.4787C61.865 12.2062 61.4642 12.0459 61.0441 12.0221C60.5252 12.0221 60.2762 12.2712 60.2762 12.5981C60.2762 13.0132 60.795 13.1688 61.3658 13.3764C62.0714 13.641 62.8601 13.9783 62.8601 14.933C62.8601 15.8877 62.1493 16.5518 60.8314 16.5518C60.1049 16.5442 59.4017 16.294 58.8337 15.841Z" fill="white"/>
<path d="M63.9238 11.2283H64.9252L65.0186 11.7835H65.0549C65.4791 11.383 66.0294 11.1427 66.6115 11.1038C67.9138 11.1038 68.661 12.1415 68.661 13.7551C68.661 15.5348 67.5921 16.5674 66.4351 16.5674C65.9321 16.5448 65.4545 16.3401 65.0912 15.9914L65.1327 16.8579V18.5027H63.9082L63.9238 11.2283ZM67.4157 13.7655C67.4157 12.7278 67.0785 12.1103 66.2846 12.1103C66.0657 12.1276 65.8525 12.1883 65.6573 12.289C65.4622 12.3896 65.2892 12.5282 65.1483 12.6967V15.1249C65.4322 15.387 65.8 15.5396 66.186 15.5556C66.8865 15.5556 67.4157 14.9433 67.4157 13.7655Z" fill="white"/>
<path d="M69.5638 13.8382C69.5638 12.1052 70.7417 11.1038 72.0388 11.1038C73.336 11.1038 74.519 12.1052 74.519 13.8382C74.519 15.5712 73.3412 16.5674 72.0388 16.5674C70.7365 16.5674 69.5638 15.566 69.5638 13.8382ZM73.2633 13.8382C73.2633 12.8004 72.8067 12.1 72.0388 12.1C71.2709 12.1 70.8195 12.7952 70.8195 13.8382C70.8195 14.8811 71.2761 15.5712 72.0388 15.5712C72.8015 15.5712 73.2633 14.8811 73.2633 13.8382Z" fill="white"/>
<path d="M75.7279 11.2283H76.7293L76.8227 11.9339H76.8538C77.0686 11.6874 77.331 11.4868 77.6252 11.3441C77.9195 11.2015 78.2395 11.1197 78.5661 11.1038C79.6816 11.1038 80.1694 11.8561 80.1694 13.1792V16.4428H78.95V13.3297C78.95 12.4736 78.701 12.1519 78.1354 12.1519C77.9026 12.1691 77.6762 12.236 77.4713 12.3478C77.2663 12.4597 77.0877 12.614 76.9472 12.8004V16.4325H75.7279V11.2283Z" fill="white"/>
<path d="M81.6482 9.75975L83.2048 7.9126L84.0453 8.72202L82.2501 10.3616L81.6482 9.75975ZM81.6482 11.2281H82.8675V16.4167H81.6482V11.2281Z" fill="white"/>
<path d="M83.7859 11.2283H85.026L85.8561 13.9315C85.9962 14.4504 86.1519 14.9693 86.2972 15.4881H86.3387C86.484 14.9693 86.6344 14.4504 86.7797 13.9315L87.6047 11.2283H88.7877L87.0184 16.4169H85.6019L83.7859 11.2283Z" fill="white"/>
<path d="M89.2806 13.8382C89.2806 12.1467 90.4585 11.1038 91.683 11.1038C93.0891 11.1038 93.8362 12.1415 93.8362 13.5735C93.838 13.7739 93.8188 13.9739 93.7792 14.1702H90.474C90.4779 14.3685 90.5217 14.564 90.6027 14.745C90.6836 14.9261 90.8002 15.089 90.9454 15.224C91.0907 15.3591 91.2616 15.4635 91.448 15.5312C91.6344 15.5989 91.8326 15.6283 92.0306 15.6179C92.4614 15.6138 92.8816 15.484 93.2396 15.2443L93.6546 16.0018C93.1291 16.3634 92.5077 16.5603 91.8698 16.5674C90.4118 16.5674 89.2806 15.5556 89.2806 13.8382ZM92.7778 13.3193C92.7778 12.5203 92.4198 12.0325 91.7089 12.0325C91.3762 12.0471 91.0617 12.1886 90.83 12.4279C90.5984 12.6673 90.4673 12.9863 90.4636 13.3193H92.7778Z" fill="white"/>
<path d="M94.9985 15.099V8.94531H96.2231V15.1717C96.2231 15.4726 96.358 15.5816 96.4877 15.5816C96.5497 15.5897 96.6125 15.5897 96.6745 15.5816L96.8301 16.4896C96.6233 16.5686 96.4028 16.6057 96.1815 16.5985C95.3202 16.5674 94.9985 16.007 94.9985 15.099Z" fill="white"/>
<path d="M99.9951 11.2283H100.997L101.09 11.9339H101.121C101.336 11.6872 101.598 11.4864 101.892 11.3437C102.187 11.2011 102.507 11.1194 102.833 11.1038C103.949 11.1038 104.437 11.8561 104.437 13.1792V16.4428H103.212V13.3297C103.212 12.4736 102.968 12.1519 102.403 12.1519C102.17 12.1691 101.943 12.236 101.738 12.3478C101.534 12.4597 101.355 12.614 101.214 12.8004V16.4325H99.9951V11.2283Z" fill="white"/>
<path d="M105.645 15.0368C105.645 13.9212 106.574 13.3401 108.712 13.1118C108.712 12.5514 108.468 12.0741 107.762 12.0741C107.237 12.1109 106.731 12.2903 106.299 12.593L105.853 11.7783C106.488 11.3559 107.229 11.1204 107.991 11.0986C109.293 11.0986 109.931 11.8977 109.931 13.3505V16.4325H108.93L108.836 15.8566H108.805C108.369 16.2796 107.794 16.5303 107.186 16.5623C106.983 16.5733 106.779 16.5416 106.588 16.469C106.397 16.3965 106.223 16.2848 106.078 16.1411C105.933 15.9974 105.819 15.8249 105.745 15.6347C105.67 15.4445 105.636 15.2408 105.645 15.0368ZM108.712 15.0368V13.8694C107.295 14.0458 106.828 14.3882 106.828 14.9382C106.828 15.4882 107.14 15.6024 107.576 15.6024C107.793 15.5884 108.005 15.5318 108.2 15.4356C108.395 15.3394 108.569 15.2057 108.712 15.042V15.0368Z" fill="white"/>
</svg>
