<svg width="156" height="48" viewBox="0 0 156 48" fill="none" xmlns="http://www.w3.org/2000/svg">
<path d="M150.62 0H4.40514C1.97225 0 0 1.97224 0 4.40513V43.5948C0 46.0277 1.97225 47.9999 4.40514 47.9999H150.62C153.053 47.9999 155.026 46.0277 155.026 43.5948V4.40513C155.026 1.97224 153.053 0 150.62 0Z" fill="black"/>
<path d="M79.2354 26.161C78.2612 26.164 77.3097 26.4557 76.5012 26.9992C75.6926 27.5427 75.0633 28.3136 74.6926 29.2146C74.3219 30.1156 74.2265 31.1062 74.4184 32.0613C74.6104 33.0164 75.0811 33.8933 75.7711 34.5811C76.461 35.2689 77.3393 35.7368 78.2951 35.9257C79.2508 36.1147 80.2411 36.0162 81.1409 35.6426C82.0407 35.2691 82.8096 34.6373 83.3506 33.827C83.8915 33.0168 84.1802 32.0644 84.1802 31.0902C84.1893 30.439 84.0676 29.7926 83.8221 29.1895C83.5766 28.5863 83.2125 28.0386 82.7513 27.5788C82.2901 27.119 81.7412 26.7566 81.1373 26.5131C80.5333 26.2695 79.8866 26.1498 79.2354 26.161ZM79.2354 34.0788C78.6359 34.1215 78.0373 33.9828 77.5177 33.6806C76.9981 33.3784 76.5815 32.9268 76.322 32.3846C76.0626 31.8424 75.9725 31.2346 76.0632 30.6404C76.154 30.0462 76.4215 29.4931 76.831 29.053C77.2405 28.613 77.773 28.3064 78.3591 28.1732C78.9452 28.0399 79.5579 28.0862 80.1174 28.306C80.6769 28.5258 81.1572 28.9089 81.4959 29.4055C81.8347 29.902 82.0161 30.4891 82.0166 31.0902C82.0318 31.4684 81.9717 31.8458 81.8396 32.2006C81.7076 32.5553 81.5063 32.8803 81.2475 33.1565C80.9887 33.4327 80.6775 33.6546 80.3321 33.8094C79.9866 33.9642 79.6139 34.0487 79.2354 34.058V34.0788ZM68.4431 26.161C67.4689 26.164 66.5174 26.4557 65.7089 26.9992C64.9003 27.5427 64.271 28.3136 63.9003 29.2146C63.5296 30.1156 63.4342 31.1062 63.6261 32.0613C63.8181 33.0164 64.2888 33.8933 64.9787 34.5811C65.6687 35.2689 66.547 35.7368 67.5028 35.9257C68.4585 36.1147 69.4488 36.0162 70.3486 35.6426C71.2484 35.2691 72.0173 34.6373 72.5582 33.827C73.0992 33.0168 73.3879 32.0644 73.3879 31.0902C73.3977 30.4388 73.2764 29.7921 73.0312 29.1886C72.786 28.5851 72.4219 28.0371 71.9606 27.5772C71.4992 27.1173 70.9501 26.7549 70.3458 26.5116C69.7415 26.2683 69.0944 26.1491 68.4431 26.161ZM68.4431 34.0788C67.8435 34.1215 67.245 33.9828 66.7254 33.6806C66.2058 33.3784 65.7891 32.9268 65.5297 32.3846C65.2703 31.8424 65.1801 31.2346 65.2709 30.6404C65.3617 30.0462 65.6292 29.4931 66.0387 29.053C66.4482 28.613 66.9806 28.3064 67.5668 28.1732C68.1529 28.0399 68.7656 28.0862 69.3251 28.306C69.8845 28.5258 70.3649 28.9089 70.7036 29.4055C71.0423 29.902 71.2237 30.4891 71.2242 31.0902C71.2395 31.4684 71.1793 31.8458 71.0473 32.2006C70.9153 32.5553 70.714 32.8803 70.4552 33.1565C70.1963 33.4327 69.8851 33.6546 69.5397 33.8094C69.1943 33.9642 68.8215 34.0487 68.4431 34.058V34.0788ZM55.6065 27.676V29.7515H60.6083C60.5365 30.7313 60.1361 31.6582 59.472 32.3821C58.9699 32.8926 58.3667 33.2924 57.701 33.556C57.0353 33.8196 56.3219 33.9411 55.6065 33.9128C54.1313 33.9128 52.7165 33.3268 51.6734 32.2836C50.6303 31.2405 50.0443 29.8258 50.0443 28.3506C50.0443 26.8754 50.6303 25.4606 51.6734 24.4175C52.7165 23.3744 54.1313 22.7884 55.6065 22.7884C57.0115 22.7707 58.3669 23.3076 59.3786 24.2827L60.8522 22.8091C60.1634 22.1243 59.3443 21.5846 58.4432 21.2218C57.5422 20.8591 56.5776 20.6808 55.6065 20.6973C54.6014 20.6973 53.6062 20.8953 52.6777 21.2799C51.7492 21.6645 50.9055 22.2283 50.1948 22.9389C49.4842 23.6496 48.9204 24.4933 48.5358 25.4218C48.1512 26.3503 47.9532 27.3455 47.9532 28.3506C47.9532 29.3556 48.1512 30.3508 48.5358 31.2793C48.9204 32.2079 49.4842 33.0515 50.1948 33.7622C50.9055 34.4729 51.7492 35.0366 52.6777 35.4212C53.6062 35.8058 54.6014 36.0038 55.6065 36.0038C56.5979 36.0449 57.5867 35.8747 58.5072 35.5043C59.4277 35.134 60.2589 34.572 60.9456 33.8557C62.1644 32.5255 62.8144 30.7712 62.7564 28.968C62.7622 28.5294 62.7239 28.0914 62.6422 27.6605L55.6065 27.676ZM108.084 29.3001C107.674 28.2001 106.424 26.161 103.866 26.161C101.308 26.161 99.1961 28.1586 99.1961 31.0902C99.1813 31.7384 99.2976 32.383 99.5378 32.9853C99.778 33.5876 100.137 34.1353 100.594 34.5955C101.051 35.0557 101.596 35.419 102.196 35.6636C102.797 35.9083 103.441 36.0293 104.089 36.0193C104.901 36.0242 105.701 35.8271 106.417 35.4458C107.134 35.0644 107.744 34.5109 108.193 33.8349L106.512 32.7142C106.261 33.1325 105.906 33.4784 105.481 33.7177C105.056 33.9569 104.577 34.0814 104.089 34.0788C103.586 34.0985 103.089 33.9666 102.663 33.7001C102.236 33.4336 101.9 33.0448 101.697 32.5845L108.287 29.8605L108.084 29.3001ZM101.339 30.9449C101.316 30.5845 101.365 30.2231 101.484 29.882C101.602 29.5409 101.788 29.2269 102.03 28.9586C102.271 28.6903 102.564 28.473 102.891 28.3196C103.218 28.1662 103.572 28.0797 103.933 28.0652C104.307 28.0396 104.679 28.1243 105.005 28.3088C105.331 28.4933 105.595 28.7695 105.765 29.1029L101.339 30.9449ZM95.9791 35.7236H98.148V21.237H95.9791V35.7236ZM92.4353 27.2661H92.3575C92.0293 26.907 91.6279 26.6224 91.1804 26.4318C90.7328 26.2411 90.2495 26.1488 89.7632 26.161C88.495 26.2192 87.298 26.7639 86.4212 27.6819C85.5443 28.6 85.055 29.8206 85.055 31.0902C85.055 32.3597 85.5443 33.5803 86.4212 34.4984C87.298 35.4164 88.495 35.9611 89.7632 36.0193C90.2511 36.0327 90.7361 35.9393 91.1842 35.7458C91.6323 35.5522 92.0327 35.2631 92.3575 34.8986H92.4353V35.6146C92.4353 37.4981 91.4235 38.5099 89.7995 38.5099C89.2582 38.4958 88.7334 38.321 88.2918 38.0078C87.8501 37.6946 87.5116 37.2571 87.3193 36.7509L85.4359 37.5396C85.791 38.4039 86.396 39.1426 87.1733 39.6611C87.9507 40.1797 88.8651 40.4545 89.7995 40.4504C92.3419 40.4504 94.4692 38.9561 94.4692 35.3137V26.4619H92.4197L92.4353 27.2661ZM89.9967 34.058C89.2527 33.9886 88.5615 33.644 88.0583 33.0917C87.5552 32.5394 87.2763 31.8191 87.2763 31.072C87.2763 30.3248 87.5552 29.6046 88.0583 29.0523C88.5615 28.5 89.2527 28.1554 89.9967 28.0859C91.4702 28.0859 92.6273 29.352 92.6273 31.0902C92.6273 32.8283 91.4806 34.058 89.9967 34.058ZM118.249 21.2162H113.06V35.7028H115.224V30.234H118.243C120.641 30.234 122.996 28.4958 122.996 25.7355C122.996 22.9752 120.646 21.237 118.249 21.237V21.2162ZM118.306 28.1949H115.229V23.2294H118.306C118.641 23.2141 118.977 23.2669 119.291 23.3847C119.606 23.5026 119.893 23.683 120.136 23.9151C120.379 24.1471 120.572 24.426 120.704 24.7349C120.837 25.0438 120.905 25.3762 120.905 25.7121C120.905 26.0481 120.837 26.3805 120.704 26.6894C120.572 26.9983 120.379 27.2772 120.136 27.5093C119.893 27.7413 119.606 27.9217 119.291 28.0396C118.977 28.1574 118.641 28.2102 118.306 28.1949ZM131.666 26.1195C130.11 26.1195 128.481 26.8095 127.806 28.3402L129.726 29.1392C129.919 28.7911 130.208 28.5056 130.558 28.3171C130.909 28.1285 131.306 28.0446 131.703 28.0756C132.818 28.0756 133.96 28.7501 133.975 29.9435V30.0888C133.282 29.7218 132.508 29.5311 131.724 29.5336C129.648 29.5336 127.547 30.6699 127.547 32.792C127.547 34.7326 129.243 35.9778 131.142 35.9778C131.687 36.0107 132.231 35.8966 132.716 35.6474C133.202 35.3982 133.612 35.0231 133.903 34.5613H133.975V35.6821H136.051V30.1303C136.061 27.5723 134.141 26.135 131.666 26.135V26.1195ZM131.433 34.058C130.722 34.058 129.736 33.7052 129.736 32.8283C129.736 31.7128 130.966 31.2718 132.024 31.2718C132.715 31.2532 133.398 31.4217 134.001 31.7595C133.929 32.3906 133.627 32.9733 133.154 33.3969C132.681 33.8206 132.068 34.0558 131.433 34.058ZM143.694 26.436L141.214 32.7194H141.141L138.547 26.436H136.217L140.077 35.2151L137.877 40.0976H140.129L146.075 26.436H143.694ZM124.221 35.708H126.379V21.237H124.221V35.708Z" fill="white"/>
<path d="M12.3748 9.70265C12.0012 10.1601 11.8156 10.7426 11.856 11.3319V36.9377C11.8149 37.5255 12.0005 38.1067 12.3748 38.5618L12.463 38.6448L26.8044 24.3034V23.9662L12.463 9.61963L12.3748 9.70265Z" fill="#5BC9F4"/>
<path d="M31.5884 29.0872L26.8044 24.3033V23.966L31.5884 19.1821L31.6973 19.2444L37.3581 22.4613C38.9769 23.3797 38.9769 24.8844 37.3581 25.8028L31.6973 29.0249L31.5884 29.0872Z" fill="url(#paint0_linear_629_3001)"/>
<path d="M31.6973 29.0252L26.8044 24.1323L12.3749 38.5619C12.8937 39.1274 13.7914 39.1949 14.7824 38.6345L31.6973 29.0252Z" fill="url(#paint1_linear_629_3001)"/>
<path d="M31.6973 19.2447L14.7824 9.63537C13.7914 9.06981 12.9093 9.11651 12.3749 9.70282L26.8044 24.1324L31.6973 19.2447Z" fill="url(#paint2_linear_629_3001)"/>
<path d="M50.0546 9.74951H51.9017C54.029 9.74951 55.2847 10.8962 55.2847 13.1948C55.2847 15.4933 54.0291 16.6919 51.9692 16.6919H50.0546V9.74951ZM51.8239 15.6905C53.2196 15.6905 54.0239 14.8966 54.0239 13.1948C54.0239 11.4929 53.2196 10.7509 51.8239 10.7509H51.305V15.6905H51.8239Z" fill="white"/>
<path d="M56.4366 9.87394C56.4219 9.72061 56.454 9.56644 56.5286 9.43171C56.6033 9.29697 56.717 9.18799 56.8547 9.1191C56.9925 9.05022 57.1479 9.02466 57.3005 9.04578C57.453 9.06691 57.5956 9.13372 57.7095 9.23745C57.8233 9.34118 57.9031 9.47694 57.9384 9.62689C57.9736 9.77683 57.9626 9.93393 57.9068 10.0775C57.851 10.2211 57.7531 10.3444 57.6259 10.4312C57.4987 10.5181 57.3481 10.5644 57.1941 10.564C57.0983 10.5719 57.0019 10.5599 56.9109 10.5289C56.82 10.4979 56.7363 10.4484 56.6653 10.3837C56.5942 10.319 56.5372 10.2403 56.4979 10.1526C56.4586 10.0649 56.4377 9.97005 56.4366 9.87394ZM56.5767 11.4772H57.8012V16.6918H56.5767V11.4772Z" fill="white"/>
<path d="M58.8337 16.09L59.4045 15.3169C59.8091 15.676 60.3269 15.8817 60.8677 15.898C61.4384 15.898 61.703 15.6282 61.703 15.2702C61.703 14.8343 61.1375 14.6424 60.5823 14.4296C59.9026 14.1702 59.1191 13.7811 59.1191 12.9094C59.1191 12.0377 59.8507 11.3528 61.0182 11.3528C61.6478 11.3599 62.2565 11.5793 62.746 11.9754L62.1856 12.7278C61.865 12.4552 61.4642 12.2949 61.0441 12.2712C60.5252 12.2712 60.2762 12.5254 60.2762 12.8471C60.2762 13.2622 60.795 13.4178 61.3658 13.6254C62.0714 13.89 62.8601 14.2273 62.8601 15.182C62.8601 16.1367 62.1493 16.8008 60.8314 16.8008C60.1049 16.7932 59.4017 16.543 58.8337 16.09Z" fill="white"/>
<path d="M63.9238 11.4773H64.9252L65.0186 12.0325H65.0549C65.4805 11.6342 66.03 11.3942 66.6115 11.3528C67.9138 11.3528 68.661 12.3905 68.661 14.0042C68.661 15.7839 67.5921 16.8164 66.4351 16.8164C65.9328 16.7952 65.4553 16.5924 65.0912 16.2456L65.1327 17.107V18.7518H63.9082L63.9238 11.4773ZM67.4157 14.0145C67.4157 12.9768 67.0785 12.3594 66.2846 12.3594C66.0657 12.3766 65.8525 12.4373 65.6573 12.538C65.4622 12.6387 65.2892 12.7773 65.1483 12.9457V15.3792C65.4322 15.6412 65.8 15.7938 66.186 15.8098C66.8865 15.8046 67.4157 15.1975 67.4157 14.0145Z" fill="white"/>
<path d="M69.5638 14.0872C69.5638 12.3542 70.7417 11.3528 72.0388 11.3528C73.336 11.3528 74.519 12.3542 74.519 14.0872C74.519 15.8202 73.3412 16.8164 72.0388 16.8164C70.7365 16.8164 69.5638 15.815 69.5638 14.0872ZM73.2633 14.0872C73.2633 13.0495 72.8067 12.349 72.0388 12.349C71.2709 12.349 70.8195 13.0443 70.8195 14.0872C70.8195 15.1301 71.2761 15.8202 72.0388 15.8202C72.8015 15.8202 73.2633 15.1301 73.2633 14.0872Z" fill="white"/>
<path d="M75.7279 11.4773H76.7293L76.8227 12.183H76.8538C77.0694 11.9373 77.332 11.7373 77.626 11.5948C77.9201 11.4522 78.2397 11.3699 78.5661 11.3528C79.6816 11.3528 80.1694 12.1051 80.1694 13.4282V16.6971H78.95V13.5839C78.95 12.7278 78.701 12.4061 78.1354 12.4061C77.9026 12.4234 77.6762 12.4902 77.4713 12.602C77.2663 12.7139 77.0877 12.8682 76.9472 13.0547V16.6867H75.7279V11.4773Z" fill="white"/>
<path d="M81.6481 10.0088L83.2047 8.16162L84.0452 8.97104L82.25 10.6158L81.6481 10.0088ZM81.6481 11.4771H82.8674V16.6917H81.6481V11.4771Z" fill="white"/>
<path d="M83.7859 11.4773H85.026L85.8561 14.1806C85.9962 14.6994 86.1519 15.2183 86.2972 15.7372H86.3387C86.484 15.2183 86.6344 14.6994 86.7797 14.1806L87.6047 11.4773H88.7877L87.0184 16.6919H85.6019L83.7859 11.4773Z" fill="white"/>
<path d="M89.2806 14.0872C89.2806 12.3957 90.4585 11.3528 91.683 11.3528C93.0891 11.3528 93.8362 12.3905 93.8362 13.8277C93.8383 14.0264 93.8191 14.2247 93.7792 14.4193H90.474C90.4779 14.6178 90.5217 14.8135 90.6026 14.9948C90.6835 15.1761 90.8 15.3393 90.9452 15.4748C91.0903 15.6102 91.2611 15.7152 91.4476 15.7834C91.634 15.8517 91.8323 15.8818 92.0306 15.8721C92.4619 15.8662 92.882 15.7345 93.2396 15.4933L93.6546 16.2508C93.1291 16.6124 92.5077 16.8093 91.8698 16.8164C90.4118 16.8164 89.2806 15.8046 89.2806 14.0872ZM92.7778 13.5683C92.7778 12.7641 92.4198 12.2764 91.7089 12.2764C91.3757 12.2922 91.0612 12.4348 90.8297 12.675C90.5982 12.9152 90.4672 13.2348 90.4636 13.5683H92.7778Z" fill="white"/>
<path d="M94.9985 15.3478V9.19409H96.2231V15.4204C96.2231 15.7214 96.358 15.8303 96.4877 15.8303C96.5497 15.8385 96.6125 15.8385 96.6745 15.8303L96.8301 16.7435C96.6222 16.818 96.4023 16.8531 96.1815 16.8473C95.3202 16.8162 94.9985 16.2558 94.9985 15.3478Z" fill="white"/>
<path d="M99.9951 11.4773H100.997L101.09 12.183H101.121C101.336 11.9369 101.599 11.7366 101.893 11.594C102.187 11.4514 102.507 11.3693 102.833 11.3528C103.949 11.3528 104.437 12.1051 104.437 13.4282V16.6971H103.212V13.5839C103.212 12.7278 102.968 12.4061 102.403 12.4061C102.17 12.4234 101.943 12.4902 101.738 12.602C101.534 12.7139 101.355 12.8682 101.214 13.0547V16.6867H99.9951V11.4773Z" fill="white"/>
<path d="M105.645 15.291C105.645 14.1755 106.574 13.5891 108.712 13.3608C108.712 12.8057 108.468 12.3231 107.762 12.3231C107.237 12.3599 106.731 12.5393 106.299 12.842L105.853 12.0274C106.488 11.6049 107.229 11.3694 107.991 11.3477C109.293 11.3477 109.931 12.1467 109.931 13.5995V16.6868H108.93L108.836 16.1056H108.805C108.369 16.5287 107.794 16.7793 107.187 16.8113C106.983 16.8231 106.779 16.792 106.588 16.7201C106.397 16.6482 106.223 16.5369 106.078 16.3936C105.933 16.2504 105.819 16.0782 105.745 15.8882C105.67 15.6983 105.636 15.4948 105.645 15.291ZM108.712 15.291V14.1236C107.295 14.3 106.828 14.6424 106.828 15.1976C106.828 15.7528 107.14 15.8566 107.576 15.8566C107.793 15.842 108.005 15.7845 108.2 15.6874C108.395 15.5904 108.569 15.4556 108.712 15.291Z" fill="white"/>
<defs>
<linearGradient id="paint0_linear_629_3001" x1="3106.08" y1="2385.21" x2="2470.74" y2="2385.21" gradientUnits="userSpaceOnUse">
<stop stop-color="#FEE000"/>
<stop offset="0.42" stop-color="#FBBC0E"/>
<stop offset="0.78" stop-color="#FAA418"/>
<stop offset="1" stop-color="#F99B1C"/>
</linearGradient>
<linearGradient id="paint1_linear_629_3001" x1="4797.77" y1="3657.08" x2="4066.45" y2="4605.92" gradientUnits="userSpaceOnUse">
<stop stop-color="#EF4547"/>
<stop offset="1" stop-color="#C6186D"/>
</linearGradient>
<linearGradient id="paint2_linear_629_3001" x1="3812.13" y1="2731.53" x2="4409.4" y2="3506.28" gradientUnits="userSpaceOnUse">
<stop stop-color="#279E6F"/>
<stop offset="0.04" stop-color="#2BA06F"/>
<stop offset="0.46" stop-color="#53B26C"/>
<stop offset="0.8" stop-color="#6BBD6A"/>
<stop offset="1" stop-color="#74C169"/>
</linearGradient>
</defs>
</svg>
